<svg xmlns="http://www.w3.org/2000/svg" viewBox="0 0 1000 570" role="img" aria-label="Extreme engagement flag rate">
<rect width="1000" height="570" rx="22" fill="#f8fafc"/>
<text x="36" y="48" fill="#102340" font-family="Arial,sans-serif" font-size="29" font-weight="700">Extreme engagement flag rate</text>
<text x="36" y="75" fill="#64748b" font-family="Arial,sans-serif" font-size="15">Percent of records flagged by country-based 99.5th percentile</text>
<line x1="235" y1="105" x2="235" y2="497" stroke="#e2e8f0" stroke-width="1"/><text x="235" y="523" text-anchor="middle" font-family="Arial,sans-serif" font-size="12" fill="#64748b">0.00%</text>
<line x1="391.25" y1="105" x2="391.25" y2="497" stroke="#e2e8f0" stroke-width="1"/><text x="391.25" y="523" text-anchor="middle" font-family="Arial,sans-serif" font-size="12" fill="#64748b">0.38%</text>
<line x1="547.5" y1="105" x2="547.5" y2="497" stroke="#e2e8f0" stroke-width="1"/><text x="547.5" y="523" text-anchor="middle" font-family="Arial,sans-serif" font-size="12" fill="#64748b">0.77%</text>
<line x1="703.75" y1="105" x2="703.75" y2="497" stroke="#e2e8f0" stroke-width="1"/><text x="703.75" y="523" text-anchor="middle" font-family="Arial,sans-serif" font-size="12" fill="#64748b">1.15%</text>
<line x1="860" y1="105" x2="860" y2="497" stroke="#e2e8f0" stroke-width="1"/><text x="860" y="523" text-anchor="middle" font-family="Arial,sans-serif" font-size="12" fill="#64748b">1.54%</text>
<text x="219" y="134" text-anchor="end" font-family="Arial,sans-serif" font-size="14" fill="#334155">Russia</text>
<rect x="235" y="116" width="529.66" height="24" rx="5" fill="#0f766e"/>
<text x="772.7" y="134" font-family="Arial,sans-serif" font-size="13" font-weight="700" fill="#102340">1.30%</text>
<text x="219" y="173" text-anchor="end" font-family="Arial,sans-serif" font-size="14" fill="#334155">India</text>
<rect x="235" y="155" width="464.97" height="24" rx="5" fill="#3884d9"/>
<text x="708.0" y="173" font-family="Arial,sans-serif" font-size="13" font-weight="500" fill="#102340">1.14%</text>
<text x="219" y="212" text-anchor="end" font-family="Arial,sans-serif" font-size="14" fill="#334155">United States</text>
<rect x="235" y="194" width="443.42" height="24" rx="5" fill="#3884d9"/>
<text x="686.4" y="212" font-family="Arial,sans-serif" font-size="13" font-weight="500" fill="#102340">1.09%</text>
<text x="219" y="251" text-anchor="end" font-family="Arial,sans-serif" font-size="14" fill="#334155">Mexico</text>
<rect x="235" y="233" width="442.85" height="24" rx="5" fill="#3884d9"/>
<text x="685.8" y="251" font-family="Arial,sans-serif" font-size="13" font-weight="500" fill="#102340">1.09%</text>
<text x="219" y="290" text-anchor="end" font-family="Arial,sans-serif" font-size="14" fill="#334155">Canada</text>
<rect x="235" y="272" width="440.61" height="24" rx="5" fill="#3884d9"/>
<text x="683.6" y="290" font-family="Arial,sans-serif" font-size="13" font-weight="500" fill="#102340">1.08%</text>
<text x="219" y="329" text-anchor="end" font-family="Arial,sans-serif" font-size="14" fill="#334155">Germany</text>
<rect x="235" y="311" width="438.09" height="24" rx="5" fill="#3884d9"/>
<text x="681.1" y="329" font-family="Arial,sans-serif" font-size="13" font-weight="500" fill="#102340">1.08%</text>
<text x="219" y="368" text-anchor="end" font-family="Arial,sans-serif" font-size="14" fill="#334155">United Kingdom</text>
<rect x="235" y="350" width="437.68" height="24" rx="5" fill="#3884d9"/>
<text x="680.7" y="368" font-family="Arial,sans-serif" font-size="13" font-weight="500" fill="#102340">1.08%</text>
<text x="219" y="407" text-anchor="end" font-family="Arial,sans-serif" font-size="14" fill="#334155">Japan</text>
<rect x="235" y="389" width="410.77" height="24" rx="5" fill="#3884d9"/>
<text x="653.8" y="407" font-family="Arial,sans-serif" font-size="13" font-weight="500" fill="#102340">1.01%</text>
<text x="219" y="446" text-anchor="end" font-family="Arial,sans-serif" font-size="14" fill="#334155">France</text>
<rect x="235" y="428" width="410.36" height="24" rx="5" fill="#3884d9"/>
<text x="653.4" y="446" font-family="Arial,sans-serif" font-size="13" font-weight="500" fill="#102340">1.01%</text>
<text x="219" y="485" text-anchor="end" font-family="Arial,sans-serif" font-size="14" fill="#334155">South Korea</text>
<rect x="235" y="467" width="346.24" height="24" rx="5" fill="#3884d9"/>
<text x="589.2" y="485" font-family="Arial,sans-serif" font-size="13" font-weight="500" fill="#102340">0.85%</text>
<text x="36" y="552" font-family="Arial,sans-serif" fill="#64748b" font-size="12">Historical YouTube trending video-day observations · Nov 2017–Jun 2018</text></svg>